<svg width="17" height="17" viewBox="0 0 17 17" fill="none" xmlns="http://www.w3.org/2000/svg">
<path d="M13.9688 3.23126C15.4896 4.73126 16.25 6.55418 16.25 8.70001C16.25 10.8458 15.4896 12.6792 13.9688 14.2C12.4688 15.7 10.6458 16.45 8.5 16.45C6.35417 16.45 4.52083 15.7 3 14.2C1.5 12.6792 0.75 10.8458 0.75 8.70001C0.75 6.55418 1.5 4.73126 3 3.23126C4.52083 1.71043 6.35417 0.950012 8.5 0.950012C10.6458 0.950012 12.4688 1.71043 13.9688 3.23126ZM7.59375 12.7938L13.3438 7.04376C13.5938 6.8146 13.5938 6.58543 13.3438 6.35626L12.6562 5.63751C12.4062 5.40835 12.1667 5.40835 11.9375 5.63751L7.25 10.325L5.0625 8.13751C4.83333 7.90835 4.59375 7.90835 4.34375 8.13751L3.65625 8.85626C3.40625 9.08543 3.40625 9.3146 3.65625 9.54376L6.90625 12.7938C7.13542 13.0438 7.36458 13.0438 7.59375 12.7938Z" fill="#ffffff"/>
</svg>
